<?xml version="1.0" standalone="no"?><!DOCTYPE svg PUBLIC "-//W3C//DTD SVG 1.1//EN" "http://www.w3.org/Graphics/SVG/1.1/DTD/svg11.dtd"><svg t="1621824291186" class="icon" viewBox="0 0 1024 1024" version="1.1" xmlns="http://www.w3.org/2000/svg" p-id="18044" width="300" height="300" xmlns:xlink="http://www.w3.org/1999/xlink"><defs><style type="text/css"></style></defs><path d="M891.136 442.688l-131.968-121.28c-9.408-10.624-41.216-8.832-41.216-8.832-1.152-39.36-9.408-44.032-9.408-44.032l-133.056-126.08C548.48 115.392 512 141.44 512 141.44c-20.032-22.4-67.968 0-67.968 0l-90.944 86.4c-60.032 52.16-47.68 84.8-47.68 84.8-18.56-1.152-37.12 3.52-52.992 13.248l-119.168 118.4C100.672 481.152 129.792 512 129.792 512a50.24 50.24 0 0 0 0 65.408L256 698.368c21.184 16.832 48.384 15.04 48.384 15.04-1.92 42.368 24.064 57.344 24.064 57.344l116.544 111.36c21.184 23.68 67.072 4.352 67.072 4.352 37.952 17.664 64.384-5.312 64.384-5.312l120.128-113.024c32.64-29.184 22.016-57.408 22.016-57.408 30.08 7.872 57.472-17.664 57.472-17.664l107.712-105.152c42.368-36.992 13.184-75.84 13.184-75.84a53.696 53.696 0 0 0-5.888-69.312v-0.064z m-40.32 138.688l-98.112 95.616s-24.96 23.36-52.416 16.128c0 0 9.6 25.792-20.032 52.352l-109.44 102.912s-24.192 21.056-58.816 4.864c0 0-41.792 17.664-61.184-3.968l-106.24-101.376s-23.552-13.696-21.888-52.352c0 0-24.704 1.6-44.032-13.696l-115.072-110.08s-24.896-26.88 0-59.776c0 0-26.56-28.032 3.2-61.824l108.736-107.904s21.76-14.4 48.256-11.968c0 0-11.264-29.76 43.52-77.312l82.816-78.848s43.712-20.352 61.888 0c0 0 33.28-23.552 57.984 1.088L691.2 289.92s7.68 4.352 8.64 40.32c0 0 28.928-1.6 37.568 8l120.128 110.592s28.672 26.24 5.312 63.296c0 0 26.56 35.328-12.096 69.248zM428.672 412.288v-142.08h165.504v142.08l73.152-71.04s24.384-20.736 0-48.256l-106.24-101.44s-17.92-24.32-48.768 8.96c0 0-21.888-30.848-47.872-11.392L359.872 291.392s-30.08 26.752 0 51.84L428.8 412.288h-0.064z m0 199.168v142.08h165.504v-142.08l73.024 71.04s24.384 20.736 0 48.256l-106.24 101.44s-17.92 24.384-48.768-8.96c0 0-21.888 30.72-47.872 11.328l-104.512-102.272s-30.08-26.752 0-51.968L428.8 611.392h-0.064z m-16.064-16H270.72V429.76H412.8l-71.04-72.832s-20.8-24.512-48.32 0L192 463.168s-24.32 17.792 8.96 48.64c0 0-30.848 21.952-11.328 47.936l102.208 104.64s26.752 30.08 51.84 0l69.12-68.928h-0.128z m199.232 0h142.08V429.76H611.84l71.04-72.832s20.672-24.512 48.256 0l101.44 106.24s24.384 17.792-8.96 48.64c0 0 30.848 21.952 11.328 47.936l-102.08 104.64s-26.88 30.08-51.968 0L611.84 595.456z" fill="#FF0000" p-id="18045"></path></svg>